<?xml version="1.0" encoding="UTF-8"?>
<!DOCTYPE svg PUBLIC "-//W3C//DTD SVG 1.1//EN" "http://www.w3.org/Graphics/SVG/1.1/DTD/svg11.dtd">
<svg xmlns="http://www.w3.org/2000/svg" version="1.1" width="32px" height="32px" style="shape-rendering:geometricPrecision; text-rendering:geometricPrecision; image-rendering:optimizeQuality; fill-rule:evenodd; clip-rule:evenodd" xmlns:xlink="http://www.w3.org/1999/xlink">
<g><path style="opacity:0.996" fill="#f32518" d="M 9.5,-0.5 C 13.5,-0.5 17.5,-0.5 21.5,-0.5C 25.8333,1.83333 29.1667,5.16667 31.5,9.5C 31.5,13.5 31.5,17.5 31.5,21.5C 29.1667,25.8333 25.8333,29.1667 21.5,31.5C 17.5,31.5 13.5,31.5 9.5,31.5C 5.16667,29.1667 1.83333,25.8333 -0.5,21.5C -0.5,17.5 -0.5,13.5 -0.5,9.5C 1.83333,5.16667 5.16667,1.83333 9.5,-0.5 Z"/></g>
<g><path style="opacity:1" fill="#fff5f4" d="M 9.5,9.5 C 13.5546,9.17575 17.5546,9.50909 21.5,10.5C 19.2573,11.4742 16.924,11.8076 14.5,11.5C 14.5,14.1667 14.5,16.8333 14.5,19.5C 16.924,19.1924 19.2573,19.5258 21.5,20.5C 17.5546,21.4909 13.5546,21.8242 9.5,21.5C 9.5,17.5 9.5,13.5 9.5,9.5 Z"/></g>
<g><path style="opacity:1" fill="#ffe7e2" d="M 15.5,13.5 C 17.5,13.5 19.5,13.5 21.5,13.5C 21.5,14.8333 21.5,16.1667 21.5,17.5C 19.5,17.5 17.5,17.5 15.5,17.5C 15.5,16.1667 15.5,14.8333 15.5,13.5 Z"/></g>
<g><path style="opacity:1" fill="#fba59f" d="M 15.5,13.5 C 17.6074,12.5318 19.9407,12.1984 22.5,12.5C 22.5,14.5 22.5,16.5 22.5,18.5C 19.9407,18.8016 17.6074,18.4682 15.5,17.5C 17.5,17.5 19.5,17.5 21.5,17.5C 21.5,16.1667 21.5,14.8333 21.5,13.5C 19.5,13.5 17.5,13.5 15.5,13.5 Z"/></g>
</svg>
